<svg width="172" height="48" viewBox="0 0 172 48" fill="none" xmlns="http://www.w3.org/2000/svg">
<path d="M32 8H8V40H32C36.4183 40 40 36.4183 40 32V16H48V32C48 40.8366 40.8366 48 32 48H8C3.58172 48 3.22128e-08 44.4183 0 40V0H32V8Z" fill="white"/>
<path d="M40 8H48V0H40V8Z" fill="white"/>
<path d="M87.5811 21.8525C87.2931 22.6084 86.9686 23.328 86.6807 24.0479H98.4531V27.6484H94.7812C94.2413 29.9521 93.2691 31.8959 91.9014 33.5518C94.0971 34.5236 96.2207 35.5679 98.2725 36.7197L96.2207 39.708C94.3488 38.5561 92.0451 37.2959 89.2373 36C86.8254 37.656 83.1171 38.952 78.1133 39.96L76.6729 36.5762C80.2009 35.9282 83.0449 35.1361 85.1689 34.1641C83.1529 33.3001 81.0286 32.4 78.7246 31.5C79.5885 30.1682 80.3445 28.8723 81.0645 27.6484H76.9609V24.0479H82.8652C83.2972 23.112 83.6573 22.2478 83.9453 21.4199L87.5811 21.8525ZM73.6133 12.9238H76.2051V16.5605H73.6133V22.0684C74.4771 21.6364 75.3049 21.2044 76.1328 20.7725V24.5879C75.2689 25.0199 74.4412 25.4165 73.6133 25.8125V35.748C73.6133 38.1959 72.353 39.4198 69.9053 39.4199H66.7373L65.9092 35.7842C66.8451 35.9282 67.7455 36 68.6094 36C69.401 35.9998 69.7968 35.5681 69.7969 34.7764V27.4678C68.5369 27.9358 67.2766 28.3678 66.0166 28.7998L65.0449 25.0205C66.6649 24.6605 68.2489 24.2283 69.7969 23.6523V16.5605H65.8008V12.9238H69.7969V6.55176H73.6133V12.9238ZM131.609 39.168H127.794V37.2246H108.21V39.168H104.43V10.3682H131.609V39.168ZM160.444 36H155.944L153.604 29.5557H142.84L140.5 36H136L145.828 10.2959H150.616L160.444 36ZM167.167 36H162.955V10.2959H167.167V36ZM108.21 33.5518H127.794V14.04H108.21V33.5518ZM84.8447 27.6484C84.3408 28.4763 83.8369 29.2685 83.333 30.0244C85.0608 30.6363 86.7887 31.3201 88.4805 32.04C89.7404 30.8161 90.6769 29.3763 91.2529 27.6484H84.8447ZM144.1 26.0996H152.344L148.312 14.832H148.168L144.1 26.0996ZM88.3369 6.12012C88.6969 7.05611 89.0209 8.1361 89.3809 9.28809H97.1934V12.6719H92.9092L94.709 13.3203C94.133 14.8323 93.4846 16.2 92.7646 17.46H97.8408V21.0244H77.4287V17.46H82.3613C81.7853 16.164 81.1373 15.0118 80.4893 13.9678L83.1533 12.6719H78.293V9.28809H85.6006C85.2407 8.38832 84.8811 7.56037 84.4492 6.76855L88.3369 6.12012ZM83.6211 12.6719C84.4491 14.1478 85.2048 15.732 85.9248 17.46H88.8047C89.6327 15.948 90.3528 14.3279 90.9648 12.6719H83.6211Z" fill="white"/>
</svg>
